<svg xmlns="http://www.w3.org/2000/svg" width="26.111" height="26.113" viewBox="0 0 26.111 26.113">
  <g id="Group_6578" data-name="Group 6578" transform="translate(-25.885 -946.658)">
    <path id="Path_2240" data-name="Path 2240" d="M49.649,1615.424l-1.245-.195a10.05,10.05,0,0,0-1.359-3.273l.745-1.022a1.391,1.391,0,0,0-.141-1.8l-.3-.3-.256-.255-.3-.3a1.391,1.391,0,0,0-1.8-.141l-1.022.744a10.047,10.047,0,0,0-3.273-1.359l-.195-1.245a1.392,1.392,0,0,0-1.375-1.176H37.913a1.392,1.392,0,0,0-1.375,1.176l-.2,1.245a10.053,10.053,0,0,0-3.273,1.359l-1.021-.744a1.391,1.391,0,0,0-1.8.141l-.3.3-.256.255-.3.3a1.392,1.392,0,0,0-.141,1.8l.745,1.022a10.05,10.05,0,0,0-1.359,3.273l-1.245.195a1.391,1.391,0,0,0-1.176,1.375v1.211a1.391,1.391,0,0,0,1.176,1.375l1.245.2a10.066,10.066,0,0,0,1.359,3.273l-.745,1.021a1.392,1.392,0,0,0,.141,1.8l.3.3.256.255.3.3a1.391,1.391,0,0,0,1.8.141l1.021-.745a10.054,10.054,0,0,0,3.273,1.36l.2,1.245a1.392,1.392,0,0,0,1.375,1.176h1.211a1.393,1.393,0,0,0,1.375-1.176l.195-1.245a10.048,10.048,0,0,0,3.273-1.36l1.022.745a1.391,1.391,0,0,0,1.8-.141l.3-.3.256-.255.3-.3a1.392,1.392,0,0,0,.141-1.8l-.745-1.021a10.066,10.066,0,0,0,1.359-3.273l1.245-.2a1.392,1.392,0,0,0,1.176-1.375V1616.8A1.392,1.392,0,0,0,49.649,1615.424Z" transform="translate(0.422 -657.689)" fill="none" stroke="#a5b0b7" stroke-miterlimit="10" stroke-width="1.5"/>
    <ellipse id="Ellipse_177" data-name="Ellipse 177" cx="4.749" cy="4.749" rx="4.749" ry="4.749" transform="translate(34.131 954.679)" fill="none" stroke="#a5b0b7" stroke-miterlimit="10" stroke-width="1.5"/>
  </g>
</svg>
