<svg xmlns="http://www.w3.org/2000/svg" width="243.622" height="68.074" viewBox="0 0 243.622 68.074"><g transform="translate(5984.45 2816.1)"><path d="M-5950.015-2765.457a43.729,43.729,0,0,1-13.043,2.2c-7.13,0-12.289-1.8-15.883-5.275-3.594-3.362-5.565-8.463-5.507-14.2.058-12.986,9.507-20.406,22.318-20.406a26.91,26.91,0,0,1,10.84,1.913l-1.855,7.072a21.646,21.646,0,0,0-9.1-1.681c-7.362,0-12.927,4.174-12.927,12.637,0,8.058,5.043,12.811,12.289,12.811a11.833,11.833,0,0,0,4.348-.579v-8.174h-6.029v-6.9h14.55Z" transform="translate(0 -4.213)" fill="#192528"/><path d="M-5929.546-2777.622c0-4.174-.116-6.9-.232-9.333h7.594l.289,5.217h.232a8.327,8.327,0,0,1,7.652-5.855,9.063,9.063,0,0,1,1.855.116v8.29a12.617,12.617,0,0,0-2.377-.231c-3.246,0-5.45,1.739-6.029,4.463a10.409,10.409,0,0,0-.174,1.971v14.376h-8.812Z" transform="translate(-17.767 -9.264)" fill="#192528"/><path d="M-5891.606-2769.971c.29,3.653,3.884,5.392,8,5.392a24.962,24.962,0,0,0,7.827-1.16l1.159,5.971a27.977,27.977,0,0,1-10.261,1.74c-9.623,0-15.131-5.565-15.131-14.435,0-7.188,4.465-15.13,14.319-15.13,9.159,0,12.637,7.131,12.637,14.145a20.935,20.935,0,0,1-.29,3.478Zm10.376-6.029c0-2.145-.927-5.738-4.985-5.738-3.709,0-5.217,3.362-5.449,5.738Z" transform="translate(-27.439 -9.264)" fill="#192528"/><path d="M-5838.448-2758.608l-.521-2.841h-.175a10.213,10.213,0,0,1-8.116,3.479c-5.739,0-9.159-4.174-9.159-8.7,0-7.362,6.608-10.9,16.637-10.839v-.406c0-1.507-.812-3.653-5.159-3.653a15.941,15.941,0,0,0-7.826,2.146l-1.624-5.681a23.4,23.4,0,0,1,11.015-2.493c9.449,0,12.463,5.565,12.463,12.232v9.855a43.967,43.967,0,0,0,.405,6.9Zm-1.043-13.391c-4.638-.058-8.232,1.043-8.232,4.463a3.165,3.165,0,0,0,3.479,3.362,4.813,4.813,0,0,0,4.579-3.246,6.3,6.3,0,0,0,.174-1.507Z" transform="translate(-41.606 -9.264)" fill="#192528"/><path d="M-5801.968-2798.671v8.116h6.319v6.492h-6.319v10.26c0,3.42.812,4.985,3.479,4.985a14.43,14.43,0,0,0,2.608-.232l.058,6.666a17.277,17.277,0,0,1-5.739.754,9.162,9.162,0,0,1-6.608-2.435c-1.623-1.681-2.435-4.405-2.435-8.405v-11.594h-3.768v-6.492h3.768v-6.145Z" transform="translate(-55.269 -5.664)" fill="#192528"/><path d="M-5782.976-2802.3a78.874,78.874,0,0,1,11.942-.811c7.42,0,12.231,1.333,16,4.174,4.058,3.015,6.607,7.826,6.607,14.724,0,7.478-2.724,12.637-6.492,15.826-4.115,3.42-10.376,5.043-18.028,5.043a76.431,76.431,0,0,1-10.029-.58Zm8.87,31.883a16.217,16.217,0,0,0,3.072.174c8,.058,13.217-4.348,13.217-13.681.057-8.116-4.7-12.406-12.29-12.406a18.328,18.328,0,0,0-4,.349Z" transform="translate(-65.472 -4.222)" fill="#ff8815"/><path d="M-5710.163-2758.752l-.522-2.841h-.174a10.212,10.212,0,0,1-8.115,3.479c-5.739,0-9.159-4.174-9.159-8.7,0-7.362,6.608-10.9,16.638-10.84v-.406c0-1.507-.812-3.652-5.16-3.652a15.945,15.945,0,0,0-7.827,2.145l-1.622-5.681a23.389,23.389,0,0,1,11.014-2.493c9.449,0,12.464,5.565,12.464,12.232v9.855a44.025,44.025,0,0,0,.405,6.9Zm-1.044-13.391c-4.638-.058-8.231,1.043-8.231,4.463a3.165,3.165,0,0,0,3.478,3.362,4.813,4.813,0,0,0,4.58-3.246,6.306,6.306,0,0,0,.174-1.507Z" transform="translate(-83.294 -9.217)" fill="#ff8815"/><g transform="translate(-5762.913 -2778.945)"><path d="M-5646.187-2761.058v11.71h-2.7v-4.8h-4.668v4.8h-2.705v-11.71h2.705v4.536h4.668v-4.536Z" transform="translate(5656.264 2761.058)" fill="#192528"/><path d="M-5638.012-2749.348v-11.71h5.278a3.4,3.4,0,0,1,1.525.346,4.068,4.068,0,0,1,1.212.907,4.244,4.244,0,0,1,.8,1.271,3.777,3.777,0,0,1,.288,1.435,4.091,4.091,0,0,1-.132,1.047,4.085,4.085,0,0,1-.379.949,3.612,3.612,0,0,1-.6.8,3.589,3.589,0,0,1-.8.6l2.573,4.354h-3.052l-2.243-3.777h-1.764v3.777Zm2.705-6.135h2.474a1.016,1.016,0,0,0,.824-.454,1.859,1.859,0,0,0,.347-1.163,1.637,1.637,0,0,0-.4-1.154,1.159,1.159,0,0,0-.858-.429h-2.392Z" transform="translate(5650.333 2761.058)" fill="#192528"/></g><g transform="translate(-5977.621 -2761.925)"><path d="M-5974.333-2735.845h4.313a4.451,4.451,0,0,1,1.866.377,3.981,3.981,0,0,1,1.408,1.06,4.787,4.787,0,0,1,.889,1.63,6.706,6.706,0,0,1,.312,2.1,8.616,8.616,0,0,1-.215,1.86,5.269,5.269,0,0,1-.741,1.771,4.229,4.229,0,0,1-1.4,1.319,4.21,4.21,0,0,1-2.178.519h-4.252Zm1.437,9.41h2.786a2.715,2.715,0,0,0,2.245-1.06,4.9,4.9,0,0,0,.837-3.09,4.565,4.565,0,0,0-.859-3.023,2.9,2.9,0,0,0-2.327-1.007h-2.682Z" transform="translate(5974.333 2735.845)" fill="#3d3d3d"/><path d="M-5959.494-2727.8a5.244,5.244,0,0,1,.215-1.489,3.934,3.934,0,0,1,.659-1.312,3.376,3.376,0,0,1,1.119-.934,3.405,3.405,0,0,1,1.608-.356,3.406,3.406,0,0,1,1.608.356,3.369,3.369,0,0,1,1.118.934,3.945,3.945,0,0,1,.66,1.312,5.279,5.279,0,0,1,.215,1.489,5.278,5.278,0,0,1-.215,1.489,3.945,3.945,0,0,1-.66,1.312,3.369,3.369,0,0,1-1.118.934,3.4,3.4,0,0,1-1.608.356,3.4,3.4,0,0,1-1.608-.356,3.376,3.376,0,0,1-1.119-.934,3.934,3.934,0,0,1-.659-1.312A5.243,5.243,0,0,1-5959.494-2727.8Zm1.349,0a5.286,5.286,0,0,0,.089.9,3.217,3.217,0,0,0,.333.971,2.234,2.234,0,0,0,.689.778,1.91,1.91,0,0,0,1.141.318,1.913,1.913,0,0,0,1.141-.318,2.244,2.244,0,0,0,.689-.778,3.2,3.2,0,0,0,.333-.971,5.286,5.286,0,0,0,.089-.9,5.3,5.3,0,0,0-.089-.9,3.215,3.215,0,0,0-.333-.971,2.26,2.26,0,0,0-.689-.778,1.915,1.915,0,0,0-1.141-.318,1.911,1.911,0,0,0-1.141.318,2.25,2.25,0,0,0-.689.778,3.228,3.228,0,0,0-.333.971A5.3,5.3,0,0,0-5958.146-2727.8Z" transform="translate(5969.511 2734.561)" fill="#3d3d3d"/><path d="M-5936.361-2729.463a1.674,1.674,0,0,0-.059-.408.961.961,0,0,0-.252-.43,1.465,1.465,0,0,0-.548-.334,2.868,2.868,0,0,0-.978-.133,3,3,0,0,0-.407.037,1.922,1.922,0,0,0-.512.148,1.174,1.174,0,0,0-.437.333.87.87,0,0,0-.186.578.839.839,0,0,0,.082.393.739.739,0,0,0,.245.267,1.75,1.75,0,0,0,.43.2q.266.089.652.178l1.3.326a3.651,3.651,0,0,1,1.7.778,1.713,1.713,0,0,1,.482,1.267,2.387,2.387,0,0,1-.238,1.082,2.349,2.349,0,0,1-.645.8,2.956,2.956,0,0,1-.97.5,4.011,4.011,0,0,1-1.215.178,5.583,5.583,0,0,1-1.312-.133,3.058,3.058,0,0,1-.9-.364,2.3,2.3,0,0,1-.585-.511,2.1,2.1,0,0,1-.333-.585,2.718,2.718,0,0,1-.148-.593q-.037-.289-.052-.526h1.26a3.152,3.152,0,0,0,.081.5,1.19,1.19,0,0,0,.274.519,1.583,1.583,0,0,0,.607.4,2.984,2.984,0,0,0,1.1.163,2.98,2.98,0,0,0,.675-.074,1.908,1.908,0,0,0,.563-.223,1.191,1.191,0,0,0,.393-.377,1.006,1.006,0,0,0,.148-.556.748.748,0,0,0-.355-.681,4.426,4.426,0,0,0-1.186-.43l-1.512-.37a3.04,3.04,0,0,1-1.3-.645,1.572,1.572,0,0,1-.489-1.237,2.352,2.352,0,0,1,.244-1.1,2.249,2.249,0,0,1,.652-.771,2.842,2.842,0,0,1,.934-.452,4.041,4.041,0,0,1,1.1-.148,3.405,3.405,0,0,1,1.63.326,2.568,2.568,0,0,1,.889.749,2.144,2.144,0,0,1,.371.815,3.594,3.594,0,0,1,.074.541Z" transform="translate(5963.583 2734.561)" fill="#3d3d3d"/><path d="M-5930.209-2727.8a5.244,5.244,0,0,1,.215-1.489,3.934,3.934,0,0,1,.659-1.312,3.371,3.371,0,0,1,1.119-.934,3.4,3.4,0,0,1,1.608-.356,3.4,3.4,0,0,1,1.608.356,3.371,3.371,0,0,1,1.119.934,3.954,3.954,0,0,1,.66,1.312,5.278,5.278,0,0,1,.214,1.489,5.277,5.277,0,0,1-.214,1.489,3.954,3.954,0,0,1-.66,1.312,3.371,3.371,0,0,1-1.119.934,3.4,3.4,0,0,1-1.608.356,3.4,3.4,0,0,1-1.608-.356,3.371,3.371,0,0,1-1.119-.934,3.934,3.934,0,0,1-.659-1.312A5.243,5.243,0,0,1-5930.209-2727.8Zm1.349,0a5.331,5.331,0,0,0,.089.9,3.243,3.243,0,0,0,.333.971,2.245,2.245,0,0,0,.689.778,1.911,1.911,0,0,0,1.141.318,1.913,1.913,0,0,0,1.141-.318,2.249,2.249,0,0,0,.689-.778,3.2,3.2,0,0,0,.333-.971,5.275,5.275,0,0,0,.088-.9,5.287,5.287,0,0,0-.088-.9,3.215,3.215,0,0,0-.333-.971,2.265,2.265,0,0,0-.689-.778,1.915,1.915,0,0,0-1.141-.318,1.913,1.913,0,0,0-1.141.318,2.261,2.261,0,0,0-.689.778,3.255,3.255,0,0,0-.333.971A5.343,5.343,0,0,0-5928.86-2727.8Z" transform="translate(5959.994 2734.561)" fill="#3d3d3d"/><path d="M-5917.345-2731.671h1.231v1.1h.029q.1-.148.289-.378a2.448,2.448,0,0,1,.467-.437,2.77,2.77,0,0,1,.674-.356,2.568,2.568,0,0,1,.912-.148,2.4,2.4,0,0,1,.874.14,2.262,2.262,0,0,1,.593.334,1.607,1.607,0,0,1,.371.415l.223.37q.236-.266.474-.5a2.729,2.729,0,0,1,.5-.4,2.413,2.413,0,0,1,.608-.259,2.879,2.879,0,0,1,.785-.1,3.025,3.025,0,0,1,.726.1,2.156,2.156,0,0,1,.785.385,2.25,2.25,0,0,1,.63.792,2.937,2.937,0,0,1,.259,1.327v5.364h-1.3v-5.009a2.462,2.462,0,0,0-.3-1.3,1.22,1.22,0,0,0-1.133-.5,1.562,1.562,0,0,0-.748.178,1.876,1.876,0,0,0-.571.466,2.22,2.22,0,0,0-.371.667,2.307,2.307,0,0,0-.133.764v4.727h-1.3v-5.364a2.5,2.5,0,0,0-.053-.5,1.265,1.265,0,0,0-.192-.466,1.1,1.1,0,0,0-.378-.341,1.191,1.191,0,0,0-.593-.134,2.313,2.313,0,0,0-.637.1,1.652,1.652,0,0,0-.667.393,2.294,2.294,0,0,0-.526.793,3.326,3.326,0,0,0-.215,1.289v4.224h-1.3Z" transform="translate(5955.814 2734.561)" fill="#3d3d3d"/><path d="M-5892.657-2726.352a2.386,2.386,0,0,1-.1.393,3.26,3.26,0,0,1-.244.563,3.969,3.969,0,0,1-.416.616,2.586,2.586,0,0,1-.622.548q-.133.089-.3.185a2.066,2.066,0,0,1-.414.17,4.191,4.191,0,0,1-.586.126,5.393,5.393,0,0,1-.8.052,3.532,3.532,0,0,1-1.459-.289,3.07,3.07,0,0,1-1.09-.807,3.633,3.633,0,0,1-.682-1.23,4.893,4.893,0,0,1-.237-1.557,6.192,6.192,0,0,1,.222-1.689,4,4,0,0,1,.674-1.371,3.118,3.118,0,0,1,1.156-.918,3.858,3.858,0,0,1,1.667-.333,3.192,3.192,0,0,1,1.468.318,2.836,2.836,0,0,1,1.037.912,4.259,4.259,0,0,1,.623,1.43,7.741,7.741,0,0,1,.208,1.86h-5.661a2.833,2.833,0,0,0,.563,1.882,2.088,2.088,0,0,0,1.689.667,2.069,2.069,0,0,0,.823-.156,2.195,2.195,0,0,0,.622-.393,1.924,1.924,0,0,0,.4-.5,1.18,1.18,0,0,0,.155-.482Zm-1.245-2.06a4.321,4.321,0,0,0-.148-.867,2.112,2.112,0,0,0-.371-.741,1.832,1.832,0,0,0-.652-.511,2.288,2.288,0,0,0-.993-.193,1.879,1.879,0,0,0-.837.193,2.234,2.234,0,0,0-.682.511,2.469,2.469,0,0,0-.46.741,2.3,2.3,0,0,0-.17.867Z" transform="translate(5950.05 2734.561)" fill="#3d3d3d"/><path d="M-5885.616-2731.524v5.038a.633.633,0,0,0,.082.348.492.492,0,0,0,.207.185.691.691,0,0,0,.26.067c.088,0,.167.007.237.007h.459v1.022q-.356.03-.615.067a3.071,3.071,0,0,1-.363.037,2.116,2.116,0,0,1-.794-.125,1.124,1.124,0,0,1-.474-.349,1.315,1.315,0,0,1-.237-.526,3.109,3.109,0,0,1-.066-.659v-5.113h-1.053v-1.082h1.053v-2.164h1.3v2.164h1.245v1.082Z" transform="translate(5946.269 2735.496)" fill="#3d3d3d"/><path d="M-5874.437-2725.205h-1.3v-5.068a3.527,3.527,0,0,0-.067-.719,1.337,1.337,0,0,0-.237-.541,1.124,1.124,0,0,0-.475-.348,2.008,2.008,0,0,0-.763-.126,2.515,2.515,0,0,0-.786.126,1.775,1.775,0,0,0-.7.429,2.154,2.154,0,0,0-.5.8,3.505,3.505,0,0,0-.186,1.222v4.224h-1.3v-10.64h1.3v3.927h.029q.134-.178.333-.4a2.814,2.814,0,0,1,.475-.415,2.574,2.574,0,0,1,.63-.319,2.486,2.486,0,0,1,.83-.126,4.113,4.113,0,0,1,.926.111,2.366,2.366,0,0,1,.881.407,2.164,2.164,0,0,1,.652.823,3.15,3.15,0,0,1,.251,1.356Z" transform="translate(5943.921 2735.845)" fill="#3d3d3d"/><path d="M-5868.5-2734.363v-1.482h1.3v1.482Zm1.3,9.158h-1.3v-7.75h1.3Z" transform="translate(5939.941 2735.845)" fill="#3d3d3d"/><path d="M-5857.357-2723.921h-1.3v-4.772a2.67,2.67,0,0,0-.355-1.519,1.484,1.484,0,0,0-1.3-.512,2.313,2.313,0,0,0-.637.1,1.657,1.657,0,0,0-.667.393,2.294,2.294,0,0,0-.526.793,3.327,3.327,0,0,0-.214,1.289v4.224h-1.3v-7.75h1.229v1.1h.03q.1-.148.3-.378a2.62,2.62,0,0,1,.481-.437,2.961,2.961,0,0,1,.675-.356,2.455,2.455,0,0,1,.889-.148,4.116,4.116,0,0,1,.926.111,2.359,2.359,0,0,1,.881.407,2.162,2.162,0,0,1,.652.823,3.149,3.149,0,0,1,.252,1.356Z" transform="translate(5938.372 2734.561)" fill="#3d3d3d"/><path d="M-5845.212-2724.559c0,.188-.005.413-.015.674a4.4,4.4,0,0,1-.119.83,4.008,4.008,0,0,1-.318.867,2.379,2.379,0,0,1-.615.763,3.233,3.233,0,0,1-1.022.548,4.668,4.668,0,0,1-1.512.215,5.388,5.388,0,0,1-.815-.073,2.909,2.909,0,0,1-.918-.312,2.449,2.449,0,0,1-.793-.7,2.473,2.473,0,0,1-.437-1.23h1.3a1.4,1.4,0,0,0,.326.711,1.44,1.44,0,0,0,.519.363,1.906,1.906,0,0,0,.533.134q.253.022.371.022a2.412,2.412,0,0,0,1.26-.274,1.72,1.72,0,0,0,.652-.682,2.394,2.394,0,0,0,.252-.86q.045-.452.044-.808v-.429a2.276,2.276,0,0,1-.793.785,2.462,2.462,0,0,1-1.3.311,3.008,3.008,0,0,1-1.645-.415,3.271,3.271,0,0,1-1.045-1.052,4.389,4.389,0,0,1-.555-1.4,6.978,6.978,0,0,1-.164-1.459,5.183,5.183,0,0,1,.215-1.519,3.715,3.715,0,0,1,.63-1.231,2.925,2.925,0,0,1,1.015-.822,3.053,3.053,0,0,1,1.371-.3,2.549,2.549,0,0,1,.918.148,2.665,2.665,0,0,1,.66.356,2.477,2.477,0,0,1,.459.444q.185.237.3.415v-1.141h1.229Zm-5.454-3.26a5.258,5.258,0,0,0,.126,1.185,2.913,2.913,0,0,0,.385.948,1.928,1.928,0,0,0,.651.63,1.8,1.8,0,0,0,.926.23,2.244,2.244,0,0,0,.682-.119,1.831,1.831,0,0,0,.689-.415,2.3,2.3,0,0,0,.533-.8,3.271,3.271,0,0,0,.215-1.274,10.33,10.33,0,0,0-.06-1.045,3.714,3.714,0,0,0-.274-1.074,2.119,2.119,0,0,0-.63-.838,1.749,1.749,0,0,0-1.126-.333,1.956,1.956,0,0,0-1.179.311,2.013,2.013,0,0,0-.637.763,2.792,2.792,0,0,0-.26.956Q-5850.665-2728.19-5850.666-2727.819Z" transform="translate(5934.583 2734.561)" fill="#3d3d3d"/><path d="M-5826.9-2724.559q0,.282-.014.674a4.365,4.365,0,0,1-.119.83,4.008,4.008,0,0,1-.318.867,2.373,2.373,0,0,1-.615.763,3.223,3.223,0,0,1-1.022.548,4.667,4.667,0,0,1-1.511.215,5.388,5.388,0,0,1-.815-.073,2.919,2.919,0,0,1-.919-.312,2.447,2.447,0,0,1-.792-.7,2.478,2.478,0,0,1-.437-1.23h1.3a1.406,1.406,0,0,0,.326.711,1.429,1.429,0,0,0,.519.363,1.9,1.9,0,0,0,.533.134c.168.015.291.022.371.022a2.413,2.413,0,0,0,1.26-.274,1.726,1.726,0,0,0,.652-.682,2.413,2.413,0,0,0,.252-.86c.03-.3.044-.571.044-.808v-.429a2.275,2.275,0,0,1-.792.785,2.464,2.464,0,0,1-1.3.311,3,3,0,0,1-1.645-.415,3.269,3.269,0,0,1-1.045-1.052,4.367,4.367,0,0,1-.555-1.4,6.913,6.913,0,0,1-.164-1.459,5.167,5.167,0,0,1,.215-1.519,3.723,3.723,0,0,1,.629-1.231,2.943,2.943,0,0,1,1.015-.822,3.056,3.056,0,0,1,1.371-.3,2.553,2.553,0,0,1,.919.148,2.67,2.67,0,0,1,.659.356,2.477,2.477,0,0,1,.459.444q.185.237.3.415v-1.141h1.23Zm-5.453-3.26a5.316,5.316,0,0,0,.125,1.185,2.946,2.946,0,0,0,.385.948,1.931,1.931,0,0,0,.652.63,1.8,1.8,0,0,0,.926.23,2.251,2.251,0,0,0,.682-.119,1.825,1.825,0,0,0,.689-.415,2.312,2.312,0,0,0,.534-.8,3.271,3.271,0,0,0,.215-1.274,10.19,10.19,0,0,0-.06-1.045,3.7,3.7,0,0,0-.274-1.074,2.131,2.131,0,0,0-.629-.838,1.75,1.75,0,0,0-1.126-.333,1.955,1.955,0,0,0-1.178.311,2.018,2.018,0,0,0-.637.763,2.78,2.78,0,0,0-.259.956Q-5832.357-2728.19-5832.356-2727.819Z" transform="translate(5928.634 2734.561)" fill="#3d3d3d"/><path d="M-5819.6-2723.921h-1.3v-7.75h1.229v1.289h.03a3.669,3.669,0,0,1,.912-1.1,1.98,1.98,0,0,1,1.267-.415c.08,0,.143,0,.193.007a.572.572,0,0,1,.148.037v1.349h-.489a1.992,1.992,0,0,0-.822.163,1.836,1.836,0,0,0-.623.453,2.062,2.062,0,0,0-.4.667,2.25,2.25,0,0,0-.141.792Z" transform="translate(5924.475 2734.561)" fill="#3d3d3d"/><path d="M-5807.459-2726.352a2.289,2.289,0,0,1-.1.393,3.223,3.223,0,0,1-.244.563,4,4,0,0,1-.415.616,2.592,2.592,0,0,1-.623.548c-.088.059-.19.121-.3.185a2.071,2.071,0,0,1-.415.17,4.16,4.16,0,0,1-.585.126,5.405,5.405,0,0,1-.8.052,3.533,3.533,0,0,1-1.459-.289,3.072,3.072,0,0,1-1.089-.807,3.641,3.641,0,0,1-.682-1.23,4.893,4.893,0,0,1-.237-1.557,6.173,6.173,0,0,1,.223-1.689,4,4,0,0,1,.674-1.371,3.124,3.124,0,0,1,1.156-.918,3.861,3.861,0,0,1,1.667-.333,3.187,3.187,0,0,1,1.468.318,2.831,2.831,0,0,1,1.038.912,4.288,4.288,0,0,1,.622,1.43,7.766,7.766,0,0,1,.208,1.86h-5.661a2.838,2.838,0,0,0,.563,1.882,2.089,2.089,0,0,0,1.69.667,2.061,2.061,0,0,0,.822-.156,2.191,2.191,0,0,0,.623-.393,1.937,1.937,0,0,0,.4-.5,1.2,1.2,0,0,0,.155-.482Zm-1.245-2.06a4.287,4.287,0,0,0-.148-.867,2.1,2.1,0,0,0-.371-.741,1.826,1.826,0,0,0-.652-.511,2.288,2.288,0,0,0-.993-.193,1.875,1.875,0,0,0-.837.193,2.236,2.236,0,0,0-.682.511,2.478,2.478,0,0,0-.459.741,2.293,2.293,0,0,0-.17.867Z" transform="translate(5922.363 2734.561)" fill="#3d3d3d"/><path d="M-5801.906-2729.315a2.844,2.844,0,0,1,.252-1.186,2.159,2.159,0,0,1,.652-.8,2.713,2.713,0,0,1,1-.452,5.593,5.593,0,0,1,1.3-.14c.1,0,.239.007.422.022a4.318,4.318,0,0,1,.6.1,3.744,3.744,0,0,1,.653.215,2.11,2.11,0,0,1,.592.385,1.938,1.938,0,0,1,.437.6,1.941,1.941,0,0,1,.17.845v4.46q0,.46.43.46a1.591,1.591,0,0,0,.2-.015,2.149,2.149,0,0,0,.23-.044v.948c-.109.03-.218.062-.326.1a1.263,1.263,0,0,1-.385.052,1.944,1.944,0,0,1-.7-.1.993.993,0,0,1-.407-.267.953.953,0,0,1-.2-.377,2.167,2.167,0,0,1-.073-.437c-.129.139-.274.282-.437.43a3.017,3.017,0,0,1-.585.407,3.577,3.577,0,0,1-.778.3,3.843,3.843,0,0,1-1,.119,2.8,2.8,0,0,1-.978-.163,2.3,2.3,0,0,1-.771-.459,2.031,2.031,0,0,1-.5-.7,2.243,2.243,0,0,1-.178-.911,3.7,3.7,0,0,1,.067-.615,2.059,2.059,0,0,1,.3-.749,2.25,2.25,0,0,1,.7-.666,3.145,3.145,0,0,1,1.282-.4l2.148-.267a1.432,1.432,0,0,0,.237-.052.573.573,0,0,0,.222-.134.635.635,0,0,0,.164-.267,1.477,1.477,0,0,0,.06-.466q0-1.26-1.824-1.26a2.251,2.251,0,0,0-.9.148,1.364,1.364,0,0,0-.518.378,1.379,1.379,0,0,0-.259.489,3.326,3.326,0,0,0-.1.482Zm4.772,1.437a1.118,1.118,0,0,1-.193.119,1.606,1.606,0,0,1-.355.112c-.158.034-.362.073-.614.118s-.581.092-.986.141a5.241,5.241,0,0,0-.525.1,2.18,2.18,0,0,0-.542.2,1.234,1.234,0,0,0-.422.363.978.978,0,0,0-.171.6,1.4,1.4,0,0,0,.333.993,1.414,1.414,0,0,0,1.074.356,2.843,2.843,0,0,0,.89-.141,2.714,2.714,0,0,0,.763-.385,2.074,2.074,0,0,0,.541-.578,1.333,1.333,0,0,0,.208-.719Z" transform="translate(5918.425 2734.561)" fill="#3d3d3d"/><path d="M-5788.212-2731.524v5.038a.633.633,0,0,0,.082.348.5.5,0,0,0,.207.185.689.689,0,0,0,.26.067c.089,0,.168.007.236.007h.46v1.022c-.237.02-.442.042-.615.067a3.043,3.043,0,0,1-.363.037,2.1,2.1,0,0,1-.792-.125,1.121,1.121,0,0,1-.475-.349,1.309,1.309,0,0,1-.237-.526,3.109,3.109,0,0,1-.066-.659v-5.113h-1.052v-1.082h1.052v-2.164h1.3v2.164h1.245v1.082Z" transform="translate(5914.616 2735.496)" fill="#3d3d3d"/><path d="M-5770.841-2726.352a2.337,2.337,0,0,1-.1.393,3.3,3.3,0,0,1-.244.563,3.969,3.969,0,0,1-.416.616,2.586,2.586,0,0,1-.622.548c-.088.059-.19.121-.3.185a2.058,2.058,0,0,1-.416.17,4.114,4.114,0,0,1-.585.126,5.4,5.4,0,0,1-.8.052,3.533,3.533,0,0,1-1.459-.289,3.07,3.07,0,0,1-1.09-.807,3.633,3.633,0,0,1-.682-1.23,4.907,4.907,0,0,1-.237-1.557,6.192,6.192,0,0,1,.222-1.689,4,4,0,0,1,.674-1.371,3.12,3.12,0,0,1,1.156-.918,3.863,3.863,0,0,1,1.667-.333,3.183,3.183,0,0,1,1.466.318,2.831,2.831,0,0,1,1.038.912,4.259,4.259,0,0,1,.623,1.43,7.741,7.741,0,0,1,.208,1.86h-5.661a2.833,2.833,0,0,0,.563,1.882,2.088,2.088,0,0,0,1.689.667,2.069,2.069,0,0,0,.823-.156,2.2,2.2,0,0,0,.622-.393,1.932,1.932,0,0,0,.4-.5,1.19,1.19,0,0,0,.156-.482Zm-1.245-2.06a4.288,4.288,0,0,0-.149-.867,2.08,2.08,0,0,0-.371-.741,1.817,1.817,0,0,0-.652-.511,2.284,2.284,0,0,0-.992-.193,1.881,1.881,0,0,0-.838.193,2.246,2.246,0,0,0-.682.511,2.478,2.478,0,0,0-.459.741,2.3,2.3,0,0,0-.17.867Z" transform="translate(5910.464 2734.561)" fill="#3d3d3d"/><path d="M-5761.2-2731.564h1.423l-2.949,7.75h-1.393l-2.831-7.75h1.511l2.016,6.312h.029Z" transform="translate(5906.94 2734.454)" fill="#3d3d3d"/><path d="M-5748.867-2726.352a2.324,2.324,0,0,1-.1.393,3.3,3.3,0,0,1-.245.563,3.96,3.96,0,0,1-.415.616,2.608,2.608,0,0,1-.623.548c-.089.059-.19.121-.3.185a2.076,2.076,0,0,1-.415.17,4.19,4.19,0,0,1-.585.126,5.417,5.417,0,0,1-.8.052,3.534,3.534,0,0,1-1.459-.289,3.066,3.066,0,0,1-1.089-.807,3.617,3.617,0,0,1-.682-1.23,4.866,4.866,0,0,1-.238-1.557,6.173,6.173,0,0,1,.223-1.689,3.988,3.988,0,0,1,.674-1.371,3.124,3.124,0,0,1,1.156-.918,3.862,3.862,0,0,1,1.667-.333,3.19,3.19,0,0,1,1.467.318,2.826,2.826,0,0,1,1.037.912,4.259,4.259,0,0,1,.623,1.43,7.742,7.742,0,0,1,.207,1.86h-5.661a2.835,2.835,0,0,0,.563,1.882,2.089,2.089,0,0,0,1.689.667,2.063,2.063,0,0,0,.822-.156,2.177,2.177,0,0,0,.623-.393,1.916,1.916,0,0,0,.4-.5,1.18,1.18,0,0,0,.155-.482Zm-1.245-2.06a4.22,4.22,0,0,0-.147-.867,2.1,2.1,0,0,0-.371-.741,1.823,1.823,0,0,0-.652-.511,2.283,2.283,0,0,0-.993-.193,1.882,1.882,0,0,0-.837.193,2.246,2.246,0,0,0-.682.511,2.478,2.478,0,0,0-.459.741,2.293,2.293,0,0,0-.17.867Z" transform="translate(5903.323 2734.561)" fill="#3d3d3d"/><path d="M-5741.5-2723.921h-1.3v-7.75h1.23v1.289h.029a3.691,3.691,0,0,1,.912-1.1,1.982,1.982,0,0,1,1.267-.415c.079,0,.144,0,.193.007a.564.564,0,0,1,.147.037v1.349h-.488a1.987,1.987,0,0,0-.822.163,1.834,1.834,0,0,0-.622.453,2.071,2.071,0,0,0-.4.667,2.239,2.239,0,0,0-.141.792Z" transform="translate(5899.092 2734.561)" fill="#3d3d3d"/><path d="M-5730.632-2731.564h1.437l-1.355,3.8q-.675,1.89-1.43,3.8-.46,1.186-.756,1.845a3.954,3.954,0,0,1-.593.993,1.209,1.209,0,0,1-.682.408,5.559,5.559,0,0,1-1.008.074.913.913,0,0,1-.267-.037c-.078-.025-.172-.052-.281-.082v-1.185a2.438,2.438,0,0,0,.319.089,2.193,2.193,0,0,0,.467.044,1.383,1.383,0,0,0,.415-.052.6.6,0,0,0,.3-.245,3.137,3.137,0,0,0,.281-.541q.149-.349.385-.956l-2.874-7.957h1.481l2.06,6.312h.03Z" transform="translate(5896.974 2734.454)" fill="#3d3d3d"/><path d="M-5711.8-2725.205h-1.23v-1.067h-.029a2.286,2.286,0,0,1-.475.645,2.531,2.531,0,0,1-.555.393,2.051,2.051,0,0,1-.593.2,3.483,3.483,0,0,1-.585.052,3.008,3.008,0,0,1-1.645-.415,3.267,3.267,0,0,1-1.045-1.052,4.39,4.39,0,0,1-.556-1.4,7.009,7.009,0,0,1-.163-1.459,5.2,5.2,0,0,1,.215-1.519,3.735,3.735,0,0,1,.63-1.231,2.931,2.931,0,0,1,1.016-.822,3.049,3.049,0,0,1,1.37-.3,2.635,2.635,0,0,1,.911.14,2.554,2.554,0,0,1,.652.349,2.387,2.387,0,0,1,.452.437q.177.23.3.393h.03v-3.986h1.3Zm-5.527-3.9a5.287,5.287,0,0,0,.126,1.185,2.914,2.914,0,0,0,.386.948,1.915,1.915,0,0,0,.651.63,1.8,1.8,0,0,0,.926.23,2.257,2.257,0,0,0,.683-.119,1.831,1.831,0,0,0,.688-.415,2.3,2.3,0,0,0,.533-.8,3.261,3.261,0,0,0,.216-1.274,10.322,10.322,0,0,0-.06-1.045,3.7,3.7,0,0,0-.274-1.074,2.11,2.11,0,0,0-.63-.838,1.748,1.748,0,0,0-1.126-.333,1.956,1.956,0,0,0-1.178.311,2.009,2.009,0,0,0-.637.763,2.771,2.771,0,0,0-.259.956Q-5717.324-2729.474-5717.324-2729.1Z" transform="translate(5891.252 2735.845)" fill="#3d3d3d"/><path d="M-5706.06-2729.315a2.844,2.844,0,0,1,.252-1.186,2.159,2.159,0,0,1,.652-.8,2.713,2.713,0,0,1,1-.452,5.593,5.593,0,0,1,1.3-.14c.1,0,.239.007.422.022a4.306,4.306,0,0,1,.6.1,3.744,3.744,0,0,1,.653.215,2.134,2.134,0,0,1,.593.385,1.944,1.944,0,0,1,.437.6,1.941,1.941,0,0,1,.171.845v4.46c0,.307.142.46.429.46a1.6,1.6,0,0,0,.2-.015,2.156,2.156,0,0,0,.229-.044v.948c-.109.03-.217.062-.326.1a1.267,1.267,0,0,1-.385.052,1.944,1.944,0,0,1-.7-.1,1,1,0,0,1-.407-.267.945.945,0,0,1-.2-.377,2.169,2.169,0,0,1-.074-.437c-.129.139-.274.282-.437.43a3.017,3.017,0,0,1-.585.407,3.577,3.577,0,0,1-.778.3,3.845,3.845,0,0,1-1,.119,2.8,2.8,0,0,1-.978-.163,2.3,2.3,0,0,1-.771-.459,2.039,2.039,0,0,1-.5-.7,2.251,2.251,0,0,1-.178-.911,3.693,3.693,0,0,1,.066-.615,2.062,2.062,0,0,1,.3-.749,2.24,2.24,0,0,1,.7-.666,3.14,3.14,0,0,1,1.282-.4l2.148-.267a1.449,1.449,0,0,0,.237-.052.577.577,0,0,0,.222-.134.644.644,0,0,0,.163-.267,1.479,1.479,0,0,0,.059-.466q0-1.26-1.823-1.26a2.248,2.248,0,0,0-.9.148,1.362,1.362,0,0,0-.519.378,1.379,1.379,0,0,0-.259.489,3.326,3.326,0,0,0-.1.482Zm4.771,1.437a1.088,1.088,0,0,1-.192.119,1.62,1.62,0,0,1-.356.112c-.158.034-.362.073-.614.118s-.581.092-.986.141a5.281,5.281,0,0,0-.526.1,2.187,2.187,0,0,0-.541.2,1.238,1.238,0,0,0-.422.363.978.978,0,0,0-.171.6,1.4,1.4,0,0,0,.333.993,1.414,1.414,0,0,0,1.074.356,2.845,2.845,0,0,0,.889-.141,2.711,2.711,0,0,0,.763-.385,2.069,2.069,0,0,0,.541-.578,1.337,1.337,0,0,0,.208-.719Z" transform="translate(5887.279 2734.561)" fill="#3d3d3d"/><path d="M-5689.8-2731.564h1.438q-.682,1.911-1.355,3.8t-1.431,3.8q-.46,1.186-.756,1.845a3.954,3.954,0,0,1-.593.993,1.211,1.211,0,0,1-.681.408,5.563,5.563,0,0,1-1.008.074.911.911,0,0,1-.267-.037q-.119-.037-.282-.082v-1.185a2.438,2.438,0,0,0,.319.089,2.192,2.192,0,0,0,.467.044,1.383,1.383,0,0,0,.416-.052.6.6,0,0,0,.3-.245,3.168,3.168,0,0,0,.281-.541q.148-.349.385-.956l-2.875-7.957h1.481l2.06,6.312h.03Z" transform="translate(5883.705 2734.454)" fill="#3d3d3d"/><path d="M-5682.38-2727.739l-.355-4.594v-3.512h1.438v3.512l-.355,4.594Zm1.082,2.534h-1.437v-1.511h1.438Z" transform="translate(5879.574 2735.845)" fill="#3d3d3d"/></g><g transform="translate(-5795.589 -2816.1)"><path d="M-5666.871-2778.242a8.9,8.9,0,0,0-.047.958l-1.586,17.477a6.453,6.453,0,0,1-6.453,6.453,6.459,6.459,0,0,1-6.46-6.453l-.142-1.573a44.378,44.378,0,0,1,6.885-10.713A27.978,27.978,0,0,1-5666.871-2778.242Z" transform="translate(5697.16 2803.798)" fill="#ff8815"/><path d="M-5661.285-2804.966l-10.355,10.362a9.4,9.4,0,0,0-2.383,4,54.455,54.455,0,0,0-15.742,10.976l-.75-8.242a9.5,9.5,0,0,0-2.788-6.73l-10.354-10.362a3.413,3.413,0,0,1,0-4.854,3.414,3.414,0,0,1,4.854,0l11.678,11.671,1.006,1a5.129,5.129,0,0,0,3.733,1.5,14.623,14.623,0,0,1-2.667,2.248,13.143,13.143,0,0,0,6.231-3.747l.006-.007,1-.992,11.679-11.671a3.414,3.414,0,0,1,4.854,0A3.415,3.415,0,0,1-5661.285-2804.966Z" transform="translate(5704.67 2814.388)" fill="#ff8815"/><path d="M-5675.341-2801.3a7.4,7.4,0,0,0,7.4-7.4,7.4,7.4,0,0,0-7.4-7.4,7.4,7.4,0,0,0-7.4,7.4A7.4,7.4,0,0,0-5675.341-2801.3Z" transform="translate(5697.544 2816.1)" fill="#ff8815"/></g></g></svg>